<svg width="74" height="54" viewBox="0 0 74 54" fill="none" xmlns="http://www.w3.org/2000/svg">
<path fill-rule="evenodd" clip-rule="evenodd" d="M65.2346 25.8379C62.6244 24.1704 59.8637 22.7335 56.9833 21.5477C50.6478 18.9395 43.8575 17.597 37 17.597C30.1425 17.597 23.3522 18.9395 17.0167 21.5477C14.1363 22.7335 11.3756 24.1704 8.76539 25.8379L33.7363 50.6564C35.5388 52.4479 38.4612 52.4479 40.2637 50.6564L65.2346 25.8379Z" fill="#D9D9D9"/>
<path d="M17.0167 5.95066L16.4457 4.56361L16.4457 4.56361L17.0167 5.95066ZM37 2L37 3.5L37 3.5L37 2ZM56.9833 5.95066L57.5543 4.56361L57.5543 4.56361L56.9833 5.95066ZM70.5207 14.1049L71.4802 12.9519L71.4802 12.9519L70.5207 14.1049ZM70.6607 20.445L71.7181 21.5089L71.7181 21.5089L70.6607 20.445ZM40.2637 50.6564L41.3211 51.7203L40.2637 50.6564ZM33.7363 50.6564L32.6789 51.7203L32.6789 51.7203L33.7363 50.6564ZM3.47926 14.1049L2.51984 12.9519L2.51984 12.9519L3.47926 14.1049ZM3.33933 20.445L2.28192 21.5089L2.28192 21.5089L3.33933 20.445ZM17.0167 21.5477L16.4457 20.1607L17.0167 21.5477ZM37 17.597L37 19.097H37L37 17.597ZM56.9833 21.5477L56.4123 22.9348L56.4123 22.9348L56.9833 21.5477ZM4.43868 15.2579C8.38431 11.9749 12.8169 9.30181 17.5877 7.33772L16.4457 4.56361C11.3936 6.64345 6.69917 9.47433 2.51984 12.9519L4.43868 15.2579ZM17.5877 7.33772C23.7419 4.80413 30.3382 3.5 37 3.5L37 0.5C29.9468 0.5 22.9625 1.88074 16.4457 4.56361L17.5877 7.33772ZM37 3.5C43.6618 3.5 50.2581 4.80414 56.4123 7.33772L57.5543 4.56361C51.0375 1.88074 44.0532 0.5 37 0.5L37 3.5ZM56.4123 7.33772C61.1831 9.30181 65.6157 11.9749 69.5613 15.2579L71.4802 12.9519C67.3008 9.47433 62.6064 6.64345 57.5543 4.56361L56.4123 7.33772ZM69.5613 15.2579C70.7677 16.2617 70.8434 18.1485 69.6033 19.3811L71.7181 21.5089C74.0829 19.1585 74.1829 15.2008 71.4802 12.9519L69.5613 15.2579ZM39.2063 49.5925C37.9888 50.8025 36.0112 50.8025 34.7937 49.5925L32.6789 51.7203C35.0664 54.0932 38.9336 54.0932 41.3211 51.7203L39.2063 49.5925ZM2.51984 12.9519C-0.182917 15.2008 -0.0828708 19.1585 2.28192 21.5089L4.39674 19.3811C3.15657 18.1485 3.23232 16.2617 4.43868 15.2579L2.51984 12.9519ZM17.5877 22.9348C23.7419 20.4012 30.3382 19.097 37 19.097L37 16.097C29.9468 16.097 22.9625 17.4778 16.4457 20.1607L17.5877 22.9348ZM37 19.097C43.6618 19.097 50.2581 20.4012 56.4123 22.9348L57.5543 20.1607C51.0375 17.4778 44.0532 16.097 37 16.097L37 19.097ZM66.0421 24.5738C63.3571 22.8585 60.5172 21.3804 57.5543 20.1607L56.4123 22.9348C59.2102 24.0866 61.8918 25.4824 64.4271 27.102L66.0421 24.5738ZM16.4457 20.1607C13.4828 21.3804 10.6429 22.8585 7.95785 24.5738L9.57292 27.102C12.1082 25.4824 14.7898 24.0866 17.5877 22.9348L16.4457 20.1607ZM7.70798 26.9018L32.6789 51.7203L34.7937 49.5925L9.8228 24.774L7.70798 26.9018ZM41.3211 51.7203L66.292 26.9018L64.1772 24.774L39.2063 49.5925L41.3211 51.7203ZM9.8228 24.774L4.39674 19.3811L2.28192 21.5089L7.70798 26.9018L9.8228 24.774ZM69.6033 19.3811L64.1772 24.774L66.292 26.9018L71.7181 21.5089L69.6033 19.3811Z" fill="#D9D9D9"/>
</svg>
