<svg width="77" height="75" viewBox="0 0 77 75" fill="none" xmlns="http://www.w3.org/2000/svg">
<path d="M2.69312 33.8438C2.03334 34.2404 1.19166 33.774 1.1781 33.0043L0.778424 10.3166C0.764865 9.54696 1.5896 9.05123 2.26294 9.42433L22.1109 20.4221C22.7842 20.7951 22.8012 21.7572 22.1414 22.1538L2.69312 33.8438Z" fill="#D9D9D9"/>
<path d="M4.71976 51.5209C7.88494 59.3724 13.6136 65.922 20.9739 70.1042C28.3343 74.2864 36.8931 75.8552 45.2582 74.5553C53.6234 73.2554 61.3025 69.1633 67.0466 62.9447C72.7907 56.7261 76.2617 48.747 76.8949 40.3052C77.5282 31.8634 75.2865 23.4557 70.5344 16.4497C65.7824 9.44378 58.7996 4.25186 50.722 1.71851C42.6445 -0.81484 33.9474 -0.540546 26.0455 2.49677C18.1436 5.53409 11.5019 11.1557 7.20077 18.4472L10.8127 20.5778C14.6329 14.1017 20.5318 9.10878 27.5501 6.41112C34.5683 3.71346 42.2928 3.46984 49.4671 5.71988C56.6414 7.96993 62.8433 12.5813 67.0639 18.8037C71.2845 25.0262 73.2756 32.4937 72.7131 39.9915C72.1507 47.4892 69.0679 54.5761 63.9661 60.0993C58.8644 65.6225 52.044 69.2569 44.6143 70.4115C37.1846 71.566 29.5829 70.1727 23.0457 66.4582C16.5084 62.7436 11.4204 56.9265 8.60917 49.953L4.71976 51.5209Z" fill="#D9D9D9"/>
</svg>
