<svg width="58" height="56" viewBox="0 0 58 56" fill="none" xmlns="http://www.w3.org/2000/svg">
    <path d="M29.08 55.24C24.84 55.24 20.98 54.56 17.5 53.2C14.02 51.84 11.02 49.92 8.50002 47.44C5.98002 44.96 4.04001 42.06 2.68001 38.74C1.32001 35.38 0.640015 31.72 0.640015 27.76C0.640015 23.8 1.32001 20.16 2.68001 16.84C4.04001 13.52 5.98002 10.64 8.50002 8.19999C11.06 5.75999 14.1 3.85999 17.62 2.49999C21.14 1.13999 25.04 0.459991 29.32 0.459991C33.44 0.459991 37.22 1.11999 40.66 2.43999C44.1 3.71999 47.06 5.53999 49.54 7.89999C52.06 10.22 54 12.98 55.36 16.18C56.76 19.38 57.46 22.9 57.46 26.74C57.46 30.18 57 33.16 56.08 35.68C55.16 38.16 53.84 40.06 52.12 41.38C50.44 42.7 48.38 43.36 45.94 43.36C43.46 43.36 41.48 42.62 40 41.14C38.56 39.66 37.84 37.52 37.84 34.72V31.3L38.08 27.88L37.54 20.08V13.24H44.2V33.64C44.2 35.16 44.5 36.24 45.1 36.88C45.74 37.48 46.48 37.78 47.32 37.78C48.4 37.78 49.32 37.36 50.08 36.52C50.84 35.68 51.4 34.44 51.76 32.8C52.16 31.16 52.36 29.18 52.36 26.86C52.36 23.66 51.8 20.74 50.68 18.1C49.6 15.46 48.02 13.2 45.94 11.32C43.9 9.39999 41.46 7.93999 38.62 6.93999C35.82 5.89999 32.72 5.37999 29.32 5.37999C25.84 5.37999 22.68 5.93999 19.84 7.05999C17 8.13999 14.56 9.67999 12.52 11.68C10.48 13.68 8.90001 16.06 7.78001 18.82C6.70001 21.54 6.16002 24.52 6.16002 27.76C6.16002 31.08 6.70001 34.12 7.78001 36.88C8.86001 39.64 10.4 42 12.4 43.96C14.44 45.96 16.86 47.5 19.66 48.58C22.46 49.7 25.6 50.26 29.08 50.26C30.92 50.26 32.86 50.04 34.9 49.6C36.94 49.2 38.88 48.54 40.72 47.62L42.34 52.42C40.5 53.34 38.38 54.04 35.98 54.52C33.58 55 31.28 55.24 29.08 55.24ZM27.52 43.36C24.76 43.36 22.3 42.72 20.14 41.44C17.98 40.12 16.26 38.32 14.98 36.04C13.74 33.72 13.12 31.06 13.12 28.06C13.12 25.1 13.74 22.48 14.98 20.2C16.22 17.88 17.92 16.08 20.08 14.8C22.28 13.52 24.76 12.88 27.52 12.88C30.2 12.88 32.54 13.48 34.54 14.68C36.54 15.84 38.1 17.54 39.22 19.78C40.34 22.02 40.9 24.78 40.9 28.06C40.9 31.34 40.36 34.12 39.28 36.4C38.2 38.68 36.66 40.42 34.66 41.62C32.66 42.78 30.28 43.36 27.52 43.36ZM28.78 37.54C30.5 37.54 32.02 37.18 33.34 36.46C34.66 35.7 35.7 34.6 36.46 33.16C37.26 31.72 37.66 30.02 37.66 28.06C37.66 26.06 37.26 24.38 36.46 23.02C35.7 21.62 34.66 20.56 33.34 19.84C32.02 19.08 30.5 18.7 28.78 18.7C27.02 18.7 25.46 19.08 24.1 19.84C22.78 20.6 21.74 21.68 20.98 23.08C20.26 24.48 19.9 26.14 19.9 28.06C19.9 30.02 20.26 31.7 20.98 33.1C21.74 34.5 22.78 35.6 24.1 36.4C25.46 37.16 27.02 37.54 28.78 37.54Z"
          fill="#D9D9D9"/>
</svg>
