<svg width="76" height="10" viewBox="0 0 76 10" fill="none" xmlns="http://www.w3.org/2000/svg">
<path d="M10 5C10 7.76142 7.76142 10 5 10C2.23858 10 0 7.76142 0 5C0 2.23858 2.23858 0 5 0C7.76142 0 10 2.23858 10 5Z" fill="#D9D9D9"/>
<path d="M43 5C43 7.76142 40.7614 10 38 10C35.2386 10 33 7.76142 33 5C33 2.23858 35.2386 0 38 0C40.7614 0 43 2.23858 43 5Z" fill="#D9D9D9"/>
<path d="M76 5C76 7.76142 73.7614 10 71 10C68.2386 10 66 7.76142 66 5C66 2.23858 68.2386 0 71 0C73.7614 0 76 2.23858 76 5Z" fill="#D9D9D9"/>
</svg>
