<svg width="113" height="114" viewBox="0 0 113 114" fill="none" xmlns="http://www.w3.org/2000/svg">
    <path d="M3.5 78C1.567 78 2.394e-07 79.567 0 81.5C-2.394e-07 83.433 1.567 85 3.5 85L3.5 78ZM25.5 78L3.5 78L3.5 85L25.5 85L25.5 78Z"
          fill="#D9D9D9"/>
    <path d="M4 53.5C2.067 53.5 0.5 55.067 0.5 57C0.5 58.933 2.067 60.5 4 60.5L4 53.5ZM26 53.5L4 53.5L4 60.5L26 60.5L26 53.5Z"
          fill="#D9D9D9"/>
    <path d="M3.5 29C1.567 29 2.394e-07 30.567 0 32.5C-2.394e-07 34.433 1.567 36 3.5 36L3.5 29ZM25.5 29L3.5 29L3.5 36L25.5 36L25.5 29Z"
          fill="#D9D9D9"/>
    <path d="M109 36C110.933 36 112.5 34.433 112.5 32.5C112.5 30.567 110.933 29 109 29L109 36ZM84 36L109 36L109 29L84 29L84 36Z"
          fill="#D9D9D9"/>
    <path d="M109 60.5C110.933 60.5 112.5 58.933 112.5 57C112.5 55.067 110.933 53.5 109 53.5L109 60.5ZM84 60.5L109 60.5L109 53.5L84 53.5L84 60.5Z"
          fill="#D9D9D9"/>
    <path d="M109 85C110.933 85 112.5 83.433 112.5 81.5C112.5 79.567 110.933 78 109 78L109 85ZM84 85L109 85L109 78L84 78L84 85Z"
          fill="#D9D9D9"/>
    <path d="M35 4C35 2.067 33.433 0.5 31.5 0.5C29.567 0.5 28 2.067 28 4H35ZM35 26L35 4H28L28 26H35Z" fill="#D9D9D9"/>
    <path d="M59.5 4C59.5 2.067 57.933 0.5 56 0.5C54.067 0.5 52.5 2.067 52.5 4H59.5ZM59.5 26L59.5 4H52.5L52.5 26H59.5Z"
          fill="#D9D9D9"/>
    <path d="M84 4C84 2.067 82.433 0.5 80.5 0.5C78.567 0.5 77 2.067 77 4H84ZM84 26L84 4H77L77 26H84Z" fill="#D9D9D9"/>
    <path d="M77 110C77 111.933 78.567 113.5 80.5 113.5C82.433 113.5 84 111.933 84 110L77 110ZM77 88L77 110L84 110L84 88L77 88Z"
          fill="#D9D9D9"/>
    <path d="M52.5 110C52.5 111.933 54.067 113.5 56 113.5C57.933 113.5 59.5 111.933 59.5 110L52.5 110ZM52.5 88L52.5 110L59.5 110L59.5 88L52.5 88Z"
          fill="#D9D9D9"/>
    <path d="M28 110C28 111.933 29.567 113.5 31.5 113.5C33.433 113.5 35 111.933 35 110L28 110ZM28 88L28 110L35 110L35 88L28 88Z"
          fill="#D9D9D9"/>
    <rect x="22" y="22" width="70" height="70" rx="5" fill="#4B4F54"/>
</svg>
