<svg width="118" height="56" viewBox="0 0 118 56" fill="none" xmlns="http://www.w3.org/2000/svg">
<path d="M53.661 21.7936L58.5459 28L53.661 34.2063C53.4433 34.4829 53.2263 34.759 53.0098 35.0345C50.0032 38.86 47.0959 42.5593 43.8324 45.618C40.3741 48.8593 36.7405 51.156 32.5594 51.994C24.7693 53.5553 16.379 51.4985 10.4238 45.9535C5.94533 41.7836 3.50001 35.0499 3.5 28C3.49999 20.9501 5.94529 14.2164 10.4237 10.0465C16.379 4.50143 24.7693 2.44468 32.5594 4.00605C36.7405 4.84406 40.3741 7.1407 43.8324 10.382C47.0958 13.4407 50.0032 17.1399 53.0098 20.9655C53.2263 21.2409 53.4433 21.5171 53.661 21.7936Z" stroke="#4254DF" stroke-width="7"/>
<path d="M64.339 34.2064L59.4541 28L64.339 21.7937C64.5567 21.5171 64.7737 21.241 64.9902 20.9655C67.9968 17.1399 70.9041 13.4407 74.1676 10.382C77.6259 7.14068 81.2595 4.84403 85.4406 4.00603C93.2307 2.4447 101.621 4.50146 107.576 10.0465C112.055 14.2164 114.5 20.9501 114.5 28C114.5 35.0499 112.055 41.7836 107.576 45.9535C101.621 51.4986 93.2307 53.5553 85.4406 51.9939C81.2595 51.1559 77.6259 48.8593 74.1676 45.618C70.9042 42.5593 67.9968 38.8601 64.9902 35.0345C64.7737 34.7591 64.5567 34.4829 64.339 34.2064Z" stroke="#4254DF" stroke-width="7"/>
<path d="M17 28H39" stroke="#4254DF" stroke-width="7" stroke-linejoin="round"/>
<path d="M79 28L101 28" stroke="#4254DF" stroke-width="7" stroke-linejoin="round"/>
<path d="M90 39V17" stroke="#4254DF" stroke-width="7" stroke-linejoin="round"/>
</svg>
