<svg width="112" height="117" viewBox="0 0 112 117" fill="none" xmlns="http://www.w3.org/2000/svg">
<path d="M0 103C0 95.268 6.26801 89 14 89H98C105.732 89 112 95.268 112 103V103C112 110.732 105.732 117 98 117H14C6.26801 117 0 110.732 0 103V103Z" fill="#D9D9D9"/>
<path fill-rule="evenodd" clip-rule="evenodd" d="M73.1127 63.2683C68.29 66.2676 62.5973 68 56.5 68C39.103 68 25 53.897 25 36.5C25 19.813 37.9755 6.15654 54.3873 5.06973C45.4497 10.6283 39.5 20.5383 39.5 31.838C39.5 49.235 53.603 63.338 71 63.338C71.7099 63.338 72.4144 63.3145 73.1127 63.2683Z" fill="#D9D9D9"/>
<circle cx="73" cy="31" r="20.5" stroke="#3C51F9" stroke-width="7"/>
<path d="M87.5726 44.0816L109.491 66" stroke="#3C51F9" stroke-width="7"/>
</svg>
