<svg width="93" height="106" viewBox="0 0 93 106" fill="none" xmlns="http://www.w3.org/2000/svg">
<path d="M19.228 18.594C18.5614 18.2091 18.5614 17.2469 19.228 16.8619L47.728 0.40747C48.3947 0.0225696 49.228 0.503694 49.228 1.27349L49.228 34.1825C49.228 34.9523 48.3947 35.4334 47.728 35.0485L19.228 18.594Z" fill="#D9D9D9"/>
<path d="M0.728027 59.728C0.728027 68.8259 3.42588 77.7195 8.48042 85.2842C13.535 92.8489 20.7192 98.7448 29.1246 102.226C37.53 105.708 46.7791 106.619 55.7022 104.844C64.6253 103.069 72.8217 98.6881 79.2549 92.2549C85.6882 85.8217 90.0692 77.6253 91.8441 68.7021C93.6191 59.779 92.7081 50.5299 89.2265 42.1245C85.7449 33.7191 79.8489 26.5349 72.2843 21.4804C64.7196 16.4258 55.826 13.728 46.728 13.728V20.7706C54.4331 20.7706 61.9651 23.0554 68.3716 27.3361C74.7781 31.6168 79.7714 37.7011 82.72 44.8196C85.6686 51.9382 86.44 59.7712 84.9369 67.3282C83.4337 74.8852 79.7234 81.8267 74.2751 87.275C68.8268 92.7233 61.8852 96.4336 54.3282 97.9368C46.7712 99.44 38.9382 98.6685 31.8197 95.7199C24.7011 92.7713 18.6168 87.778 14.3361 81.3715C10.0554 74.965 7.77063 67.433 7.77063 59.728L0.728027 59.728Z" fill="#D9D9D9"/>
</svg>
