<svg width="98" height="116" viewBox="0 0 98 116" fill="none" xmlns="http://www.w3.org/2000/svg">
    <path d="M56 45L35 24L56 3" stroke="#D9D9D9" stroke-width="7"/>
    <path d="M0.0264816 66.4387C-0.294907 75.9116 2.31453 85.2612 7.51917 93.2849C12.7238 101.309 20.2856 107.639 29.2321 111.463C38.1785 115.287 48.1004 116.429 57.7217 114.742C67.343 113.054 76.2236 108.616 83.2214 101.996C90.2192 95.3768 95.0142 86.8793 96.9895 77.5966C98.9649 68.314 98.0304 58.6707 94.3062 49.9071C90.5819 41.1436 84.2383 33.6604 76.0912 28.4201C67.944 23.1799 58.366 20.4222 48.5889 20.5017L48.6495 27.4992C56.9862 27.4314 65.1532 29.7829 72.1 34.2511C79.0469 38.7194 84.456 45.1001 87.6315 52.5726C90.8071 60.0451 91.604 68.2677 89.9196 76.1828C88.2353 84.0979 84.1467 91.3436 78.1798 96.9879C72.213 102.632 64.6407 106.417 56.4368 107.855C48.233 109.294 39.7728 108.32 32.1443 105.06C24.5159 101.8 18.0681 96.4014 13.6302 89.5598C9.19234 82.7182 6.96733 74.7461 7.24137 66.6687L0.0264816 66.4387Z"
          fill="#D9D9D9"/>
    <path d="M49 24L35 24" stroke="#D9D9D9" stroke-width="7"/>
</svg>
