<svg width="78" height="77" viewBox="0 0 78 77" fill="none" xmlns="http://www.w3.org/2000/svg">
<path d="M11.3417 19.664C9.59946 18.4939 9.12176 16.1184 10.46 14.5017C15.0584 8.94631 21.1624 4.79247 28.0762 2.56432C36.2002 -0.0538964 44.9692 0.139269 52.97 3.11269C60.9709 6.0861 67.7377 11.6666 72.1801 18.955C76.6225 26.2433 78.4817 34.8151 77.4583 43.289C76.4348 51.7629 72.5881 59.6455 66.5382 65.6666C60.4883 71.6877 52.5874 75.4966 44.1087 76.4796C35.6299 77.4626 27.0672 75.5624 19.8001 71.0852C13.6157 67.275 8.67621 61.7873 5.53266 55.2968C4.61786 53.408 5.6474 51.2146 7.61809 50.4929C9.58879 49.7712 11.7507 50.7984 12.7124 52.6637C15.2366 57.5596 19.0564 61.7004 23.7866 64.6147C29.6002 68.1964 36.4504 69.7165 43.2334 68.9302C50.0164 68.1438 56.3371 65.0966 61.177 60.2798C66.017 55.4629 69.0943 49.1568 69.9131 42.3777C70.7319 35.5985 69.2445 28.7411 65.6906 22.9105C62.1367 17.0798 56.7232 12.6154 50.3225 10.2366C43.9218 7.8579 36.9067 7.70337 30.4074 9.79794C25.1195 11.5021 20.4236 14.6145 16.8063 18.7686C15.4281 20.3513 13.0839 20.8341 11.3417 19.664Z" fill="#D9D9D9"/>
<path d="M7.11219 35.5682C5.20441 36.6637 2.80544 35.4013 2.62805 33.2086L0.942956 12.3794C0.752239 10.022 3.23723 8.38126 5.33024 9.48266L25.1373 19.9056C27.2303 21.007 27.2851 23.9843 25.2341 25.1621L7.11219 35.5682Z" fill="#D9D9D9"/>
</svg>
