<svg width="78" height="77" viewBox="0 0 78 77" fill="none" xmlns="http://www.w3.org/2000/svg">
    <path d="M4.84803 52.289L4.61616 52.3825L4.70963 52.6144C7.89591 60.5182 13.6628 67.1115 21.0722 71.3216C28.4816 75.5317 37.0975 77.1109 45.5184 75.8023C53.9393 74.4937 61.6696 70.3744 67.452 64.1144C73.2344 57.8543 76.7285 49.822 77.366 41.3239C78.0034 32.8258 75.7468 24.362 70.9631 17.3094C66.1793 10.2567 59.15 5.0302 51.0186 2.47996C42.8872 -0.0702727 34.1321 0.20585 26.1775 3.26342C20.031 5.62602 14.6419 9.54193 10.512 14.5864L2.60585 10.2057C1.76417 9.73928 0.733255 10.3589 0.750204 11.321L1.14988 34.0087C1.16683 34.9708 2.21892 35.5538 3.04365 35.0581L22.4919 23.3681C23.3167 22.8724 23.2955 21.6697 22.4538 21.2034L14.6948 16.9041C18.234 12.8026 22.7485 9.60981 27.8615 7.64447C34.8271 4.96706 42.4936 4.72527 49.614 6.95843C56.7345 9.19159 62.8898 13.7683 67.0787 19.9441C71.2677 26.1198 73.2438 33.5313 72.6856 40.9728C72.1273 48.4143 69.0677 55.448 64.0042 60.9297C58.9408 66.4114 52.1716 70.0185 44.7976 71.1644C37.4237 72.3103 29.8791 70.9274 23.3909 67.2408C16.9028 63.5542 11.8529 57.7807 9.06278 50.8595L8.9693 50.6276L8.73744 50.7211L4.84803 52.289Z"
          fill="#0DA40D" stroke="#0DA40D" stroke-width="0.5"/>
</svg>
