<svg width="77" height="76" viewBox="0 0 77 76" fill="none" xmlns="http://www.w3.org/2000/svg">
<path d="M10.409 18.9316C8.66685 17.7615 8.18915 15.386 9.52735 13.7693C14.1258 8.21389 20.2298 4.06005 27.1436 1.83189C35.2676 -0.786318 44.0366 -0.593153 52.0374 2.38026C60.0383 5.35368 66.8051 10.9342 71.2475 18.2225C75.6899 25.5109 77.5491 34.0827 76.5256 42.5566C75.5021 51.0305 71.6555 58.9131 65.6056 64.9342C59.5557 70.9553 51.6548 74.7642 43.176 75.7472C34.6973 76.7302 26.1345 74.83 18.8675 70.3528C12.6831 66.5426 7.74359 61.0549 4.60005 54.5644C3.68524 52.6756 4.71478 50.4822 6.68548 49.7605C8.65617 49.0388 10.818 50.0659 11.7798 51.9313C14.304 56.8271 18.1238 60.968 22.854 63.8822C28.6676 67.464 35.5178 68.9841 42.3008 68.1977C49.0838 67.4113 55.4045 64.3642 60.2444 59.5474C65.0844 54.7305 68.1617 48.4244 68.9805 41.6453C69.7993 34.8661 68.3119 28.0087 64.758 22.178C61.204 16.3473 55.7906 11.8829 49.3899 9.50421C42.9892 7.12548 35.9741 6.97095 29.4748 9.06552C24.1868 10.7697 19.491 13.8821 15.8737 18.0361C14.4955 19.6189 12.1512 20.1017 10.409 18.9316Z" fill="#0DA40D"/>
<path d="M6.17957 34.8358C4.2718 35.9313 1.87283 34.6689 1.69543 32.4761L0.0103386 11.647C-0.180378 9.28959 2.30461 7.64884 4.39762 8.75024L24.2046 19.1732C26.2976 20.2746 26.3525 23.2519 24.3015 24.4296L6.17957 34.8358Z" fill="#0DA40D"/>
</svg>
