<svg width="75" height="78" viewBox="0 0 75 78" fill="none" xmlns="http://www.w3.org/2000/svg">
    <path d="M58.5379 10.0069C65.0312 14.5536 69.8927 21.0655 72.4062 28.5834C74.9198 36.1012 74.9524 44.2276 72.4994 51.7654C70.0464 59.3032 65.2374 65.8539 58.7808 70.4527C52.3242 75.0514 44.5614 77.455 36.6358 77.3093C28.7102 77.1637 21.0409 74.4766 14.7577 69.6437C8.47437 64.8109 3.90928 58.0879 1.73484 50.4651C-0.439599 42.8422 -0.108424 34.7226 2.67958 27.3021C5.46759 19.8817 10.565 13.5528 17.221 9.24774L20.2774 13.9732C14.6338 17.6235 10.3117 22.9897 7.94776 29.2815C5.58381 35.5733 5.30301 42.4579 7.14671 48.9213C8.99042 55.3847 12.8611 61.0851 18.1887 65.1829C23.5163 69.2806 30.0191 71.559 36.7392 71.6825C43.4593 71.806 50.0414 69.768 55.5159 65.8688C60.9904 61.9695 65.068 56.4151 67.1479 50.0238C69.2278 43.6325 69.2001 36.7422 67.0689 30.3678C64.9377 23.9935 60.8156 18.472 55.3099 14.6169L58.5379 10.0069Z"
          fill="#F90918"/>
    <path d="M34 0H40V40.5H34V0Z" fill="#F90918"/>
</svg>
