<svg width="74" height="54" viewBox="0 0 74 54" fill="none" xmlns="http://www.w3.org/2000/svg">
    <path d="M33.7363 50.6564C35.5388 52.4479 38.4612 52.4479 40.2637 50.6564L48.6235 42.3476C42.5 38 30.5 38 25.3765 42.3476L33.7363 50.6564Z"
          fill="#D9D9D9"/>
    <path d="M25.3765 42.3476L17.0167 34.0388L8.76539 25.8379L3.33933 20.445C1.53685 18.6535 1.5247 15.7312 3.47926 14.1049C7.54174 10.7246 12.1053 7.97263 17.0167 5.95066C23.3522 3.34244 30.1425 2 37 2C43.8575 2 50.6478 3.34244 56.9833 5.95066C61.8947 7.97263 66.4583 10.7246 70.5207 14.1049C72.4753 15.7312 72.4631 18.6535 70.6607 20.445L65.2346 25.8379L56.9833 34.0388L48.6235 42.3476M25.3765 42.3476L33.7363 50.6564C35.5388 52.4479 38.4612 52.4479 40.2637 50.6564L48.6235 42.3476M25.3765 42.3476C30.5 38 42.5 38 48.6235 42.3476"
          stroke="#D9D9D9" stroke-width="3"/>
</svg>
