<svg width="85" height="81" viewBox="0 0 85 81" fill="none" xmlns="http://www.w3.org/2000/svg">
<path d="M69.1256 11.6683C70.7658 10.0281 73.4439 10.0161 74.9121 11.8118C79.2541 17.1223 82.2434 23.4337 83.59 30.2032C85.2105 38.3504 84.3788 46.7952 81.1999 54.4697C78.021 62.1442 72.6378 68.7037 65.7309 73.3187C58.8241 77.9337 50.7038 80.397 42.397 80.397C34.0902 80.397 25.9699 77.9337 19.063 73.3187C12.1562 68.7037 6.77293 62.1442 3.59405 54.4697C0.41517 46.7952 -0.416569 38.3504 1.20401 30.2032C2.55054 23.4337 5.53989 17.1223 9.88186 11.8118C11.3501 10.0161 14.0282 10.0281 15.6684 11.6683C17.3086 13.3085 17.2843 15.9538 15.8614 17.7857C12.6706 21.8937 10.4648 26.7028 9.44261 31.8419C8.14614 38.3597 8.81153 45.1155 11.3546 51.2551C13.8977 57.3947 18.2043 62.6423 23.7298 66.3344C29.2553 70.0264 35.7515 71.997 42.397 71.997C49.0424 71.997 55.5387 70.0264 61.0641 66.3344C66.5896 62.6423 70.8962 57.3947 73.4393 51.2551C75.9825 45.1155 76.6478 38.3597 75.3514 31.8419C74.3291 26.7028 72.1234 21.8937 68.9326 17.7857C67.5097 15.9538 67.4854 13.3085 69.1256 11.6683Z" fill="#F90918"/>
<path d="M37 4.5C37 2.01472 39.0147 0 41.5 0C43.9853 0 46 2.01472 46 4.5V34.5C46 36.9853 43.9853 39 41.5 39C39.0147 39 37 36.9853 37 34.5V4.5Z" fill="#F90918"/>
</svg>
